<svg xmlns="http://www.w3.org/2000/svg" viewBox="25.0 26.8 225.2 204.5">
  <path d="M 47.5715 82.915 L 47.5715 39.527 C 47.5715 34.598 44.2192 31.836 38.8943 31.836 C 33.3718 31.836 30.0196 34.598 30.0196 39.527 L 30.0196 173.4953 C 30.0196 178.6226 33.3718 181.1865 38.8943 181.1865 C 43.8247 181.1865 47.5715 178.8202 47.5715 173.8898 L 47.5715 82.915 Z" fill="#3b7dc3"/>
  <path d="M 88.8273 91.157 L 88.8273 84.636 C 88.8273 79.706 85.475 76.944 80.1502 76.944 C 74.6277 76.944 71.2754 79.706 71.2754 84.636 L 71.2754 173.1359 C 71.2754 178.2632 74.6277 180.8271 80.1502 180.8271 C 85.0805 180.8271 88.8273 178.4608 88.8273 173.5304 L 88.8273 91.157 Z" fill="#3b7dc3"/>
  <path d="M 129.666 84.241 C 129.666 79.311 125.92 76.944 120.989 76.944 C 115.467 76.944 112.114 79.508 112.114 84.636 L 112.114 218.6035 C 112.114 223.5332 115.467 226.2948 120.989 226.2948 C 126.314 226.2948 129.666 223.5332 129.666 218.6035 L 129.666 175.2163 L 129.666 84.241 Z" fill="#3b7dc3"/>
  <path d="M 170.922 84.241 C 170.922 79.311 167.175 76.944 162.245 76.944 C 156.723 76.944 153.37 79.508 153.37 84.636 L 153.37 173.1359 C 153.37 178.0655 156.723 180.8271 162.245 180.8271 C 167.57 180.8271 170.922 178.0655 170.922 173.1359 L 170.922 166.6143 L 170.922 84.241 Z" fill="#3b7dc3"/>
  <path d="M 193.842 81.041 C 188.912 81.041 186.546 84.788 186.546 89.719 C 186.546 95.241 189.11 98.593 194.237 98.593 L 237.514 98.593 C 242.444 98.593 245.205 95.241 245.205 89.719 C 245.205 84.394 242.444 81.041 237.514 81.041 L 233.206 81.041 L 193.842 81.041 Z" fill="#3b7dc3"/>
  <path d="M 193.842 120.11 C 188.912 120.11 186.546 123.857 186.546 128.787 C 186.546 134.309 189.11 137.662 194.237 137.662 L 237.514 137.662 C 242.444 137.662 245.205 134.309 245.205 128.787 C 245.205 123.462 242.444 120.11 237.514 120.11 L 233.206 120.11 L 193.842 120.11 Z" fill="#3b7dc3"/>
  <path d="M 193.842 159.1781 C 188.912 159.1781 186.546 162.9249 186.546 167.8553 C 186.546 173.3778 189.11 176.7301 194.237 176.7301 L 237.514 176.7301 C 242.444 176.7301 245.205 173.3778 245.205 167.8553 C 245.205 162.5304 242.444 159.1781 237.514 159.1781 L 233.206 159.1781 L 193.842 159.1781 Z" fill="#3b7dc3"/>
  <path d="M 82.0915 163.6346 L 70.6072 163.6346 C 66.8871 163.6346 63.8713 166.6504 63.8713 170.3705 L 63.8713 174.4507 C 63.8713 178.1708 66.8871 181.1865 70.6072 181.1865 L 82.0915 181.1865 C 85.8116 181.1865 88.8273 178.1708 88.8273 174.4507 L 88.8273 170.3705 C 88.8273 166.6504 85.8116 163.6346 82.0915 163.6346 Z" fill="#3b7dc3"/>
  <path d="M 82.0915 76.944 L 70.6072 76.944 C 66.8871 76.944 63.8713 79.96 63.8713 83.68 L 63.8713 87.76 C 63.8713 91.481 66.8871 94.496 70.6072 94.496 L 82.0915 94.496 C 85.8116 94.496 88.8273 91.481 88.8273 87.76 L 88.8273 83.68 C 88.8273 79.96 85.8116 76.944 82.0915 76.944 Z" fill="#3b7dc3"/>
  <path d="M 163.848 163.6346 L 152.364 163.6346 C 148.644 163.6346 145.628 166.6504 145.628 170.3705 L 145.628 174.4507 C 145.628 178.1708 148.644 181.1865 152.364 181.1865 L 163.848 181.1865 C 167.568 181.1865 170.584 178.1708 170.584 174.4507 L 170.584 170.3705 C 170.584 166.6504 167.568 163.6346 163.848 163.6346 Z" fill="#3b7dc3"/>
</svg>