<?xml version="1.0" encoding="UTF-8"?><svg id="Ebene_1" xmlns="http://www.w3.org/2000/svg" viewBox="0 0 93.59 85.01"><defs><style>.cls-1{fill:#3b72b8;}</style></defs><path class="cls-1" d="M11.21,60.74v17.15c0,1.95-1.32,3.04-3.43,3.04s-3.51-1.09-3.51-3.04V24.95c0-2.03,1.32-3.04,3.51-3.04,1.95,0,3.43.94,3.43,2.88v35.95Z"/><path class="cls-1" d="M43.66,60.22c0,1.95-1.48,2.88-3.43,2.88-2.18,0-3.51-1.01-3.51-3.04V7.12c0-1.95,1.32-3.04,3.51-3.04s3.43,1.09,3.43,3.04v53.1Z"/><path class="cls-1" d="M69.02,61.48c-1.95,0-2.88-1.48-2.88-3.43,0-2.18,1.01-3.51,3.04-3.51h17.1c1.95,0,3.04,1.32,3.04,3.51s-1.09,3.43-3.04,3.43h-17.26Z"/><path class="cls-1" d="M69.02,46.04c-1.95,0-2.88-1.48-2.88-3.43,0-2.18,1.01-3.51,3.04-3.51h17.1c1.95,0,3.04,1.32,3.04,3.51s-1.09,3.43-3.04,3.43h-17.26Z"/><path class="cls-1" d="M69.02,30.6c-1.95,0-2.88-1.48-2.88-3.43,0-2.18,1.01-3.51,3.04-3.51h17.1c1.95,0,3.04,1.32,3.04,3.51s-1.09,3.43-3.04,3.43h-17.26Z"/><path class="cls-1" d="M24.86,21.91h-4.54c-1.47,0-2.66,1.19-2.66,2.66v1.61c0,1.47,1.19,2.66,2.66,2.66h.26v27.32h-.26c-1.47,0-2.66,1.19-2.66,2.66v1.61c0,1.47,1.19,2.66,2.66,2.66h4.54c1.47,0,2.66-1.19,2.66-2.66V24.57c0-1.47-1.19-2.66-2.66-2.66Z"/><path class="cls-1" d="M57.3,21.91h-4.54c-1.47,0-2.66,1.19-2.66,2.66v1.61c0,1.47,1.19,2.66,2.66,2.66h.26v31.22c0,2.03,1.32,3.04,3.51,3.04,1.95,0,3.43-.94,3.43-2.88V24.57c0-1.47-1.19-2.66-2.66-2.66Z"/></svg>